<svg width="82" height="106" viewBox="0 0 82 106" fill="none" xmlns="http://www.w3.org/2000/svg">
<path d="M82 41.2222C82 63.9886 41 106 41 106C41 106 0 63.9886 0 41.2222C0 18.4558 18.3563 0 41 0C63.6437 0 82 18.4558 82 41.2222Z" fill="#FCFCFC"/>
<g clip-path="url(#clip0)">
<path d="M63.8197 62.6049L60.5258 32.3994C60.4741 21.6214 52.0116 12.87 41.6173 12.87C31.2229 12.87 22.7604 21.6219 22.7092 32.3994L19.4148 62.6049C19.3597 63.1103 19.5233 63.6151 19.862 63.9827C20.2007 64.3508 20.6804 64.5469 21.1672 64.5092C21.2013 64.5069 24.5701 64.2748 27.6041 64.2748C29.7425 64.2748 30.8054 64.3892 31.3209 64.4858C33.9016 64.9671 38.9391 68.3607 40.6623 69.6281C40.9487 69.8379 41.283 69.9436 41.6173 69.9436C41.9521 69.9436 42.288 69.8373 42.5744 69.6258C44.2437 68.3938 49.1302 65.0843 51.6597 64.5767C52.2418 64.46 53.4733 64.3211 56.0369 64.3211C58.986 64.3211 62.0491 64.5081 62.0794 64.5104C62.5635 64.5338 63.0405 64.3451 63.3764 63.9781C63.7123 63.6111 63.8748 63.108 63.8197 62.6049ZM56.0369 60.891C53.7365 60.891 52.1003 60.9951 51.0324 61.2094C48.0695 61.804 43.6043 64.7527 41.6151 66.1459C39.5785 64.7247 34.9469 61.6777 31.9047 61.1094C30.9492 60.931 29.5421 60.8447 27.603 60.8447C25.931 60.8447 24.1967 60.9099 22.9168 60.9733L26.002 32.6915C26.0092 32.6275 26.0125 32.5629 26.0125 32.4988C26.0125 23.5668 33.0122 16.3007 41.6167 16.3007C50.2207 16.3007 57.2209 23.5668 57.2209 32.4988C57.2209 32.5634 57.2248 32.628 57.2314 32.6915L60.3177 60.9888C59.1479 60.9396 57.591 60.891 56.0369 60.891Z" fill="#080029"/>
<path d="M31.7043 34.6163C33.3391 34.6163 34.6644 33.2406 34.6644 31.5435C34.6644 29.8464 33.3391 28.4707 31.7043 28.4707C30.0694 28.4707 28.7441 29.8464 28.7441 31.5435C28.7441 33.2406 30.0694 34.6163 31.7043 34.6163Z" fill="#080029"/>
<path d="M51.5302 34.6163C53.1651 34.6163 54.4904 33.2406 54.4904 31.5435C54.4904 29.8464 53.1651 28.4707 51.5302 28.4707C49.8954 28.4707 48.5701 29.8464 48.5701 31.5435C48.5701 33.2406 49.8954 34.6163 51.5302 34.6163Z" fill="#080029"/>
<path d="M41.6174 55.7923L48.9905 35.9725H34.2432L41.6174 55.7923ZM41.6174 46.2714L39.062 39.4026H44.1727L41.6174 46.2714Z" fill="#080029"/>
</g>
<defs>
<clipPath id="clip0">
<rect width="45.1594" height="57.1685" fill="white" transform="translate(19.0144 12.8226)"/>
</clipPath>
</defs>
</svg>
