<svg width="512" height="157" viewBox="0 0 512 157" fill="none" xmlns="http://www.w3.org/2000/svg">
<path class="car-icon__shape" d="M505.453 86.993L494.577 74.986C482.766 61.949 467.968 52.286 451.687 46.651H200.782C192.597 46.651 185.554 40.361 185.168 32.185C184.757 23.456 191.713 16.249 200.352 16.249H244.186L201.592 0L154.745 1.37801C99.341 3.00801 45.594 20.649 0 52.17L6.79 109.076C8.307 121.792 19.092 131.367 31.898 131.367C31.898 100.595 56.933 75.56 87.705 75.56C118.477 75.56 143.512 100.595 143.512 131.367C143.512 135.062 143.142 138.672 142.454 142.168C152.382 148.249 163.88 151.568 175.742 151.568H363.461C359.549 143.341 357.672 133.967 358.507 124.095C360.702 98.157 381.741 77.347 407.701 75.428C438.979 73.116 465.168 97.91 465.168 128.707C465.168 133.708 464.463 138.545 463.172 143.14H477.19C485.528 143.14 493.331 139.03 498.045 132.153L507.567 118.27C514.19 108.612 513.315 95.671 505.453 86.993Z" fill="black"/>
<path d="M411.743 105.682C399.046 105.682 388.716 116.012 388.716 128.709C388.716 141.406 399.046 151.736 411.743 151.736C424.44 151.736 434.77 141.405 434.77 128.709C434.769 116.013 424.44 105.682 411.743 105.682Z" fill="#444444"/>
<path d="M87.706 105.962C73.698 105.962 62.301 117.359 62.301 131.367C62.301 145.375 73.698 156.772 87.706 156.772C101.714 156.772 113.111 145.375 113.111 131.367C113.111 117.359 101.715 105.962 87.706 105.962Z" fill="#444444"/>
</svg>
