<?xml version="1.0" encoding="iso-8859-1"?>
<svg version="1.1" id="Capa_1" xmlns="http://www.w3.org/2000/svg" xmlns:xlink="http://www.w3.org/1999/xlink" x="0px" y="0px"
	 viewBox="0 0 512 512" style="enable-background:new 0 0 512 512;" xml:space="preserve">
<g>
	<g>
		<path class="car-icon__shape" d="M505.453,264.607L494.577,252.6c-11.811-13.037-26.609-22.7-42.89-28.335H200.782c-8.185,0-15.228-6.29-15.614-14.466
			c-0.411-8.729,6.545-15.936,15.184-15.936h43.834l-42.594-16.249l-46.847,1.378C99.341,180.622,45.594,198.263,0,229.784
			l6.79,56.906c1.517,12.716,12.302,22.291,25.108,22.291c0-30.772,25.035-55.807,55.807-55.807
			c30.772,0,55.807,25.035,55.807,55.807c0,3.695-0.37,7.305-1.058,10.801c9.928,6.081,21.426,9.4,33.288,9.4h187.719
			c-3.912-8.227-5.789-17.601-4.954-27.473c2.195-25.938,23.234-46.748,49.194-48.667c31.278-2.312,57.467,22.482,57.467,53.279
			c0,5.001-0.705,9.838-1.996,14.433h14.018c8.338,0,16.141-4.11,20.855-10.987l9.522-13.883
			C514.19,286.226,513.315,273.285,505.453,264.607z"/>
	</g>
</g>
<g>
	<g>
		<path d="M411.743,283.296c-12.697,0-23.027,10.33-23.027,23.027s10.33,23.027,23.027,23.027s23.027-10.331,23.027-23.027
			C434.769,293.627,424.44,283.296,411.743,283.296z"/>
	</g>
</g>
<g>
	<g>
		<path d="M87.706,283.576c-14.008,0-25.405,11.397-25.405,25.405c0,14.008,11.397,25.405,25.405,25.405
			s25.405-11.397,25.405-25.405C113.111,294.973,101.715,283.576,87.706,283.576z"/>
	</g>
</g>
</svg>
