<svg width="20" height="20" viewBox="0 0 20 20" fill="none" xmlns="http://www.w3.org/2000/svg">
<path fill-rule="evenodd" clip-rule="evenodd" d="M10 20C15.5228 20 20 15.5228 20 10C20 4.47715 15.5228 0 10 0C4.47715 0 0 4.47715 0 10C0 15.5228 4.47715 20 10 20ZM14.7887 9.99999C14.7887 10.216 14.7727 10.424 14.7487 10.624L16.0847 11.68C16.2127 11.776 16.2447 11.944 16.1647 12.088L14.8847 14.304C14.8047 14.448 14.6367 14.504 14.4927 14.448L12.9007 13.808C12.5727 14.056 12.2127 14.272 11.8207 14.432L11.5807 16.128C11.5647 16.288 11.4287 16.4 11.2687 16.4H8.70875C8.54875 16.4 8.42074 16.288 8.38875 16.128L8.14875 14.432C7.75675 14.272 7.40475 14.064 7.06875 13.808L5.47675 14.448C5.33275 14.496 5.16475 14.448 5.08474 14.304L3.80474 12.088C3.73275 11.952 3.76474 11.776 3.88475 11.68L5.23674 10.624C5.20475 10.424 5.18875 10.208 5.18875 9.99999C5.18875 9.79199 5.21275 9.57599 5.24475 9.37599L3.89275 8.31999C3.76474 8.22399 3.73275 8.05599 3.81275 7.91199L5.09275 5.69599C5.17275 5.55199 5.34074 5.49599 5.48475 5.55199L7.07675 6.19199C7.40475 5.94399 7.76475 5.72799 8.15674 5.56799L8.39675 3.87199C8.42074 3.71199 8.54875 3.59999 8.70875 3.59999H11.2687C11.4287 3.59999 11.5647 3.71199 11.5887 3.87199L11.8287 5.56799C12.2207 5.72799 12.5727 5.93599 12.9087 6.19199L14.5007 5.55199C14.6447 5.50399 14.8127 5.55199 14.8927 5.69599L16.1727 7.91199C16.2447 8.04799 16.2127 8.22399 16.0927 8.31999L14.7407 9.37599C14.7727 9.57599 14.7887 9.78399 14.7887 9.99999ZM7.58874 9.99999C7.58874 11.32 8.66874 12.4 9.98874 12.4C11.3087 12.4 12.3887 11.32 12.3887 9.99999C12.3887 8.67999 11.3087 7.59999 9.98874 7.59999C8.66874 7.59999 7.58874 8.67999 7.58874 9.99999Z" fill="white"/>
</svg>
